<svg width="57" height="57" viewBox="0 0 57 57" fill="none" xmlns="http://www.w3.org/2000/svg">
<path d="M0.5 10C0.5 4.75329 4.75329 0.5 10 0.5H56.5V56.5H10C4.75329 56.5 0.5 52.2467 0.5 47V10Z" fill="white"/>
<mask id="mask0_18198_1663" style="mask-type:alpha" maskUnits="userSpaceOnUse" x="12" y="12" width="33" height="33">
<rect x="12.5" y="12.5" width="32" height="32" fill="#D9D9D9"/>
</mask>
<g mask="url(#mask0_18198_1663)">
<path d="M21.8329 40.5C21.0996 40.5 20.4718 40.2389 19.9496 39.7167C19.4273 39.1944 19.1662 38.5667 19.1662 37.8333V20.5H17.8329V17.8333H24.4996V16.5H32.4996V17.8333H39.1662V20.5H37.8329V37.8333C37.8329 38.5667 37.5718 39.1944 37.0496 39.7167C36.5273 40.2389 35.8996 40.5 35.1662 40.5H21.8329ZM35.1662 20.5H21.8329V37.8333H35.1662V20.5ZM24.4996 35.1667H27.1662V23.1667H24.4996V35.1667ZM29.8329 35.1667H32.4996V23.1667H29.8329V35.1667Z" fill="#4589FF"/>
</g>
<path d="M0.5 10C0.5 4.75329 4.75329 0.5 10 0.5H56.5V56.5H10C4.75329 56.5 0.5 52.2467 0.5 47V10Z" stroke="#4589FF"/>
</svg>
